<?xml version="1.0" encoding="UTF-8" standalone="no"?>
<!DOCTYPE svg PUBLIC "-//W3C//DTD SVG 1.1//EN"
 "http://www.w3.org/Graphics/SVG/1.1/DTD/svg11.dtd">
<!-- Generated by graphviz version 2.40.1 (20161225.0304)
 -->
<!-- Title: dependencies Pages: 1 -->
<svg width="859pt" height="284pt"
 viewBox="0.00 0.00 859.00 284.00" xmlns="http://www.w3.org/2000/svg" xmlns:xlink="http://www.w3.org/1999/xlink">
<g id="graph0" class="graph" transform="scale(1 1) rotate(0) translate(4 280)">
<title>dependencies</title>
<polygon fill="#ffffff" stroke="transparent" points="-4,4 -4,-280 855,-280 855,4 -4,4"/>
<text text-anchor="start" x="404.5091" y="-42.4" font-family="sans-serif" font-weight="bold" font-size="14.00" fill="#000000">Legend</text>
<polygon fill="#ffffb3" stroke="transparent" points="191.5,-10 191.5,-30 211.5,-30 211.5,-10 191.5,-10"/>
<text text-anchor="start" x="215.129" y="-15.4" font-family="sans-serif" font-size="14.00" fill="#000000"> &#160;Declarations</text>
<polygon fill="#8dd3c7" stroke="transparent" points="304.5,-10 304.5,-30 324.5,-30 324.5,-10 304.5,-10"/>
<text text-anchor="start" x="328.2251" y="-15.4" font-family="sans-serif" font-size="14.00" fill="#000000"> &#160;Module</text>
<polygon fill="#80b1d3" stroke="transparent" points="390.5,-10 390.5,-30 410.5,-30 410.5,-10 390.5,-10"/>
<text text-anchor="start" x="414.2812" y="-15.4" font-family="sans-serif" font-size="14.00" fill="#000000"> &#160;Bootstrap</text>
<polygon fill="#fdb462" stroke="transparent" points="487.5,-10 487.5,-30 507.5,-30 507.5,-10 487.5,-10"/>
<text text-anchor="start" x="511.1732" y="-15.4" font-family="sans-serif" font-size="14.00" fill="#000000"> &#160;Providers</text>
<polygon fill="#fb8072" stroke="transparent" points="583.5,-10 583.5,-30 603.5,-30 603.5,-10 583.5,-10"/>
<text text-anchor="start" x="607.2258" y="-15.4" font-family="sans-serif" font-size="14.00" fill="#000000"> &#160;Exports</text>
<g id="clust1" class="cluster">
<title>cluster_AppModule</title>
<polygon fill="none" stroke="#000000" stroke-dasharray="1,5" points="8,-70 8,-268 843,-268 843,-70 8,-70"/>
</g>
<g id="clust2" class="cluster">
<title>cluster_AppModule_declarations</title>
<polygon fill="none" stroke="#000000" points="168,-78 168,-130 835,-130 835,-78 168,-78"/>
</g>
<g id="clust8" class="cluster">
<title>cluster_AppModule_imports</title>
<polygon fill="none" stroke="#000000" points="16,-78 16,-130 160,-130 160,-78 16,-78"/>
</g>
<g id="clust10" class="cluster">
<title>cluster_AppModule_bootstrap</title>
<polygon fill="none" stroke="#000000" points="386,-208 386,-260 510,-260 510,-208 386,-208"/>
</g>
<!-- AppComponent -->
<g id="node1" class="node">
<title>AppComponent</title>
<polygon fill="#ffffb3" stroke="#000000" points="826.9399,-122 721.0601,-122 721.0601,-86 826.9399,-86 826.9399,-122"/>
<text text-anchor="middle" x="774" y="-99.8" font-family="Times,serif" font-size="14.00" fill="#000000">AppComponent</text>
</g>
<!-- AppModule -->
<g id="node6" class="node">
<title>AppModule</title>
<polygon fill="#8dd3c7" stroke="#000000" points="489.6571,-187 486.6571,-191 465.6571,-191 462.6571,-187 406.3429,-187 406.3429,-151 489.6571,-151 489.6571,-187"/>
<text text-anchor="middle" x="448" y="-164.8" font-family="Times,serif" font-size="14.00" fill="#000000">AppModule</text>
</g>
<!-- AppComponent&#45;&gt;AppModule -->
<g id="edge1" class="edge">
<title>AppComponent&#45;&gt;AppModule</title>
<path fill="none" stroke="#000000" d="M774,-122.2843C774,-143.3211 774,-175 774,-175 774,-175 499.9514,-175 499.9514,-175"/>
<polygon fill="#000000" stroke="#000000" points="499.9514,-171.5001 489.9514,-175 499.9514,-178.5001 499.9514,-171.5001"/>
</g>
<!-- ErrorComponent -->
<g id="node2" class="node">
<title>ErrorComponent</title>
<polygon fill="#ffffb3" stroke="#000000" points="703.3669,-122 592.6331,-122 592.6331,-86 703.3669,-86 703.3669,-122"/>
<text text-anchor="middle" x="648" y="-99.8" font-family="Times,serif" font-size="14.00" fill="#000000">ErrorComponent</text>
</g>
<!-- ErrorComponent&#45;&gt;AppModule -->
<g id="edge2" class="edge">
<title>ErrorComponent&#45;&gt;AppModule</title>
<path fill="none" stroke="#000000" d="M648,-122.0225C648,-139.3734 648,-163 648,-163 648,-163 499.9266,-163 499.9266,-163"/>
<polygon fill="#000000" stroke="#000000" points="499.9266,-159.5001 489.9266,-163 499.9265,-166.5001 499.9266,-159.5001"/>
</g>
<!-- LoginComponent -->
<g id="node3" class="node">
<title>LoginComponent</title>
<polygon fill="#ffffb3" stroke="#000000" points="574.2758,-122 459.7242,-122 459.7242,-86 574.2758,-86 574.2758,-122"/>
<text text-anchor="middle" x="517" y="-99.8" font-family="Times,serif" font-size="14.00" fill="#000000">LoginComponent</text>
</g>
<!-- LoginComponent&#45;&gt;AppModule -->
<g id="edge3" class="edge">
<title>LoginComponent&#45;&gt;AppModule</title>
<path fill="none" stroke="#000000" d="M474.7202,-122.1061C474.7202,-122.1061 474.7202,-140.991 474.7202,-140.991"/>
<polygon fill="#000000" stroke="#000000" points="471.2203,-140.9909 474.7202,-150.991 478.2203,-140.991 471.2203,-140.9909"/>
</g>
<!-- NavbarComponent -->
<g id="node4" class="node">
<title>NavbarComponent</title>
<polygon fill="#ffffb3" stroke="#000000" points="441.0297,-122 318.9703,-122 318.9703,-86 441.0297,-86 441.0297,-122"/>
<text text-anchor="middle" x="380" y="-99.8" font-family="Times,serif" font-size="14.00" fill="#000000">NavbarComponent</text>
</g>
<!-- NavbarComponent&#45;&gt;AppModule -->
<g id="edge4" class="edge">
<title>NavbarComponent&#45;&gt;AppModule</title>
<path fill="none" stroke="#000000" d="M423.7181,-122.1061C423.7181,-122.1061 423.7181,-140.991 423.7181,-140.991"/>
<polygon fill="#000000" stroke="#000000" points="420.2182,-140.9909 423.7181,-150.991 427.2182,-140.991 420.2182,-140.9909"/>
</g>
<!-- SpinnerComponent -->
<g id="node5" class="node">
<title>SpinnerComponent</title>
<polygon fill="#ffffb3" stroke="#000000" points="300.3809,-122 175.6191,-122 175.6191,-86 300.3809,-86 300.3809,-122"/>
<text text-anchor="middle" x="238" y="-99.8" font-family="Times,serif" font-size="14.00" fill="#000000">SpinnerComponent</text>
</g>
<!-- SpinnerComponent&#45;&gt;AppModule -->
<g id="edge5" class="edge">
<title>SpinnerComponent&#45;&gt;AppModule</title>
<path fill="none" stroke="#000000" d="M238,-122.0225C238,-139.3734 238,-163 238,-163 238,-163 396.2597,-163 396.2597,-163"/>
<polygon fill="#000000" stroke="#000000" points="396.2597,-166.5001 406.2597,-163 396.2596,-159.5001 396.2597,-166.5001"/>
</g>
<!-- AppComponent  -->
<g id="node8" class="node">
<title>AppComponent </title>
<polygon fill="#80b1d3" stroke="#000000" points="502.439,-252 393.561,-252 393.561,-216 502.439,-216 502.439,-252"/>
<text text-anchor="middle" x="448" y="-229.8" font-family="Times,serif" font-size="14.00" fill="#000000">AppComponent </text>
</g>
<!-- AppModule&#45;&gt;AppComponent  -->
<g id="edge7" class="edge">
<title>AppModule&#45;&gt;AppComponent </title>
<path fill="none" stroke="#000000" stroke-dasharray="1,5" d="M448,-187.1061C448,-187.1061 448,-205.991 448,-205.991"/>
<polygon fill="#000000" stroke="#000000" points="444.5001,-205.9909 448,-215.991 451.5001,-205.991 444.5001,-205.9909"/>
</g>
<!-- AppRoutingModule -->
<g id="node7" class="node">
<title>AppRoutingModule</title>
<polygon fill="#8dd3c7" stroke="#000000" points="152.2744,-122 149.2744,-126 128.2744,-126 125.2744,-122 23.7256,-122 23.7256,-86 152.2744,-86 152.2744,-122"/>
<text text-anchor="middle" x="88" y="-99.8" font-family="Times,serif" font-size="14.00" fill="#000000">AppRoutingModule</text>
</g>
<!-- AppRoutingModule&#45;&gt;AppModule -->
<g id="edge6" class="edge">
<title>AppRoutingModule&#45;&gt;AppModule</title>
<path fill="none" stroke="#000000" d="M88,-122.2843C88,-143.3211 88,-175 88,-175 88,-175 395.9989,-175 395.9989,-175"/>
<polygon fill="#000000" stroke="#000000" points="395.9989,-178.5001 405.9989,-175 395.9988,-171.5001 395.9989,-178.5001"/>
</g>
</g>
</svg>
